<svg width="64" height="64" viewBox="0 0 64 64" fill="none" xmlns="http://www.w3.org/2000/svg">
<rect width="64" height="64" fill="#1A1A1A"/>
<path fill-rule="evenodd" clip-rule="evenodd" d="M8.62773 17.7382L32.0018 31.369L55.3724 17.7382L32.0018 4.10745L8.62773 17.7382ZM7.27129 17.2636L31.7305 3L32.2731 3.00002L56.7287 17.2636V18.2128L32.2731 32.4764L31.7305 32.4765L7.27129 18.2128L7.27129 17.2636Z" fill="white"/>
<path fill-rule="evenodd" clip-rule="evenodd" d="M7 17.7382L7.81386 17.2636L32.2731 31.5272L32.5444 32.0018V60.5254L31.7305 61L7.27129 46.7364L7 46.2618V17.7382ZM8.08515 18.6874V45.9454L31.4592 59.5762V32.3182L8.08515 18.6874Z" fill="white"/>
<path fill-rule="evenodd" clip-rule="evenodd" d="M32.5444 32.3182V59.5761L55.9149 45.9454V18.6875L32.5444 32.3182ZM31.7305 31.5272L56.1861 17.2636L57 17.7382V46.2618L56.7287 46.7364L32.2731 61L31.4592 60.5254V32.0018L31.7305 31.5272Z" fill="white"/>
<path fill-rule="evenodd" clip-rule="evenodd" d="M32.1375 3.23731V32.081L7.40693 46.4991V17.6591L32.1375 3.23731ZM7.67822 17.8173V46.0245L31.8662 31.9227V3.71192L7.67822 17.8173Z" fill="white"/>
<path fill-rule="evenodd" clip-rule="evenodd" d="M31.8662 3.23729L56.5931 17.6591V46.4991L31.8662 32.081V3.23729ZM32.1375 3.71194V31.9227L56.3218 46.0245V17.8173L32.1375 3.71194Z" fill="white"/>
<path fill-rule="evenodd" clip-rule="evenodd" d="M24.6279 19.4663L24.9411 19.2837H39.0625L39.3758 19.4664L46.4329 31.8192L46.4329 32.1845L39.3758 44.5336L39.0625 44.7163H24.9411L24.6279 44.5337L17.5672 32.1845L17.5672 31.8191L24.6279 19.4663ZM25.15 20.0144L18.2981 32.0018L25.1499 43.9856H38.8536L45.702 32.0018L38.8536 20.0144H25.15Z" fill="white"/>
<path fill-rule="evenodd" clip-rule="evenodd" d="M32.4195 32.0018L39.0624 43.6202L45.702 32.0018L39.0624 20.3799L32.4195 32.0018ZM31.6886 31.8191L38.7493 19.4663L39.3758 19.4664L46.4329 31.8192L46.4329 32.1845L39.3758 44.5336L38.7493 44.5337L31.6886 32.1845L31.6886 31.8191Z" fill="white"/>
<path fill-rule="evenodd" clip-rule="evenodd" d="M24.6279 19.4663L24.9411 19.2837H39.0625L39.3758 19.8317L32.3151 32.1845L32.0018 32.3672H17.8804L17.5672 31.8191L24.6279 19.4663ZM25.15 20.0144L18.5069 31.6364H31.793L38.436 20.0144H25.15Z" fill="white"/>
<path fill-rule="evenodd" clip-rule="evenodd" d="M17.5672 32.1845L17.8804 31.6365H32.0018L32.315 31.8191L39.3757 44.1682L39.0625 44.7163H24.9411L24.6279 44.5337L17.5672 32.1845ZM18.507 32.3672L25.1499 43.9856L38.4359 43.9856L31.793 32.3672H18.507Z" fill="white"/>
<path fill-rule="evenodd" clip-rule="evenodd" d="M24.8628 19.6033H39.0886L46.1979 32.0475H31.9757L24.8628 19.6033ZM25.0194 19.6947L32.0279 31.9561H46.0413L39.0364 19.6947H25.0194Z" fill="white"/>
<path fill-rule="evenodd" clip-rule="evenodd" d="M31.9757 31.9562H46.1979L39.0886 44.3966H24.8628L31.9757 31.9562ZM32.0279 32.0475L25.0194 44.3053H39.0364L46.0413 32.0475H32.0279Z" fill="white"/>
<path fill-rule="evenodd" clip-rule="evenodd" d="M24.9362 19.6944L7.53769 17.7836L7.54746 17.6928L24.946 19.6036L24.9362 19.6944Z" fill="white"/>
<path fill-rule="evenodd" clip-rule="evenodd" d="M39.0211 19.6675L31.9604 3.49304L32.0432 3.45619L39.1039 19.6306L39.0211 19.6675Z" fill="white"/>
<path fill-rule="evenodd" clip-rule="evenodd" d="M46.0831 31.9748L56.4209 17.7112L56.4939 17.7652L46.1561 32.0288L46.0831 31.9748Z" fill="white"/>
<path fill-rule="evenodd" clip-rule="evenodd" d="M39.0674 44.3056L56.4623 46.2164L56.4525 46.3072L39.0576 44.3964L39.0674 44.3056Z" fill="white"/>
<path fill-rule="evenodd" clip-rule="evenodd" d="M24.9825 44.3325L32.0432 60.507L31.9604 60.5438L24.8997 44.3694L24.9825 44.3325Z" fill="white"/>
<path fill-rule="evenodd" clip-rule="evenodd" d="M17.9169 32.0288L7.57905 46.2888L7.50609 46.2348L17.8439 31.9748L17.9169 32.0288Z" fill="white"/>
</svg>
