<svg width="1920" height="3728" viewBox="0 0 1920 3728" fill="none" xmlns="http://www.w3.org/2000/svg">
<mask id="mask0_781_3995" style="mask-type:luminance" maskUnits="userSpaceOnUse" x="-740" y="0" width="3949" height="5379">
<path d="M3208.45 0L3208.46 5379L-739.457 5379L-739.457 0.000172584L3208.45 0Z" fill="white"/>
</mask>
<g mask="url(#mask0_781_3995)">
<path d="M1177.2 2480.71C1177.2 2559.78 1185.18 2638.82 1200.88 2715.59C1216.2 2790.42 1239.08 2864.02 1268.87 2934.37C1298.09 3003.43 1334.28 3070.04 1376.42 3132.34C1418.14 3194.05 1466.08 3252.08 1518.84 3304.83C1571.63 3357.57 1629.71 3405.45 1691.47 3447.13C1753.83 3489.24 1820.5 3525.37 1889.62 3554.59C1960.02 3584.36 2033.68 3607.19 2108.57 3622.52C2185.41 3638.24 2264.52 3646.19 2343.65 3646.19C2422.79 3646.19 2501.9 3638.21 2578.74 3622.52C2653.63 3607.22 2727.29 3584.36 2797.69 3554.59C2866.81 3525.4 2933.48 3489.24 2995.84 3447.13C3057.6 3405.45 3115.68 3357.54 3168.47 3304.83C3221.26 3252.08 3269.17 3194.05 3310.89 3132.34C3353.03 3070.04 3389.19 3003.43 3418.44 2934.36C3448.23 2864.02 3471.08 2790.42 3486.43 2715.59C3502.16 2638.82 3510.11 2559.78 3510.11 2480.71C3510.11 2401.63 3502.13 2322.59 3486.43 2245.82C3471.11 2171 3448.23 2097.39 3418.44 2027.05C3389.22 1957.99 3353.03 1891.38 3310.89 1829.07C3269.17 1767.36 3221.23 1709.33 3168.47 1656.58C3115.71 1603.84 3057.6 1555.97 2995.84 1514.28C2933.48 1472.17 2866.81 1436.04 2797.69 1406.82C2727.29 1377.05 2653.63 1354.22 2578.73 1338.89C2501.9 1323.18 2422.79 1315.23 2343.65 1315.23C2264.52 1315.23 2185.41 1323.21 2108.57 1338.89C2033.68 1354.19 1960.02 1377.05 1889.62 1406.82C1820.5 1436.01 1753.83 1472.17 1691.47 1514.28C1629.71 1555.97 1571.63 1603.87 1518.84 1656.58C1466.05 1709.3 1418.14 1767.36 1376.42 1829.07C1334.28 1891.38 1298.12 1957.99 1268.87 2027.05C1239.08 2097.39 1216.23 2171 1200.88 2245.82C1185.15 2322.59 1177.2 2401.63 1177.2 2480.71ZM3507.3 2480.71C3507.3 3121.79 2985.31 3643.35 2343.68 3643.35C1702.06 3643.35 1180.07 3121.79 1180.07 2480.71C1180.07 1839.62 1702.06 1318.06 2343.68 1318.06C2985.31 1318.06 3507.3 1839.62 3507.3 2480.71Z" fill="#8285FF"/>
<path d="M801.037 3300.91C801.037 3388.62 818.234 3473.73 852.15 3553.82C884.9 3631.18 931.797 3700.66 991.524 3760.34C1051.25 3820.02 1120.79 3866.87 1198.22 3899.6C1278.41 3933.48 1363.55 3950.67 1451.34 3950.67C1539.12 3950.67 1624.3 3933.48 1704.45 3899.6C1781.88 3866.87 1851.42 3820.02 1911.15 3760.34C1970.88 3700.66 2017.77 3631.18 2050.52 3553.82C2084.44 3473.7 2101.63 3388.62 2101.63 3300.91C2101.63 3213.21 2084.44 3128.1 2050.52 3048.01C2017.77 2970.64 1970.88 2901.13 1911.15 2841.49C1851.42 2781.81 1781.88 2734.95 1704.45 2702.23C1624.27 2668.34 1539.12 2651.16 1451.34 2651.16C1363.55 2651.16 1278.38 2668.34 1198.22 2702.23C1120.79 2734.95 1051.22 2781.81 991.524 2841.49C931.797 2901.16 884.9 2970.64 852.15 3048.01C818.234 3128.13 801.037 3213.21 801.037 3300.91ZM2098.79 3300.91C2098.79 3657.6 1808.35 3947.8 1451.37 3947.8C1094.38 3947.8 803.938 3657.6 803.938 3300.91C803.938 2944.23 1094.38 2654.03 1451.37 2654.03C1808.35 2654.03 2098.79 2944.23 2098.79 3300.91Z" fill="#8285FF"/>
<path d="M144.637 3938.5C144.637 4012.5 159.143 4084.25 187.735 4151.81C215.37 4217.08 254.91 4275.68 305.275 4326C355.641 4376.33 414.291 4415.83 479.611 4443.44C547.234 4472.01 619.044 4486.5 693.098 4486.5C767.151 4486.5 838.961 4472.01 906.584 4443.44C971.904 4415.83 1030.55 4376.33 1080.92 4326C1131.29 4275.68 1170.83 4217.08 1198.46 4151.81C1227.05 4084.25 1241.56 4012.5 1241.56 3938.5C1241.56 3864.51 1227.05 3792.76 1198.46 3725.2C1170.83 3659.93 1131.29 3601.33 1080.92 3551.01C1030.55 3500.68 971.904 3461.18 906.584 3433.57C838.961 3405 767.151 3390.5 693.098 3390.5C619.044 3390.5 547.234 3405 479.611 3433.57C414.291 3461.18 355.641 3500.68 305.275 3551.01C254.91 3601.33 215.37 3659.93 187.735 3725.2C159.143 3792.76 144.637 3864.51 144.637 3938.5ZM1238.66 3938.5C1238.66 4239.07 993.917 4483.64 693.068 4483.64C392.219 4483.64 147.478 4239.1 147.478 3938.5C147.478 3637.91 392.219 3393.37 693.068 3393.37C993.917 3393.37 1238.66 3637.91 1238.66 3938.5Z" fill="#8285FF"/>
<path d="M1684.59 645.092C1684.59 719.083 1699.1 790.833 1727.69 858.399C1755.33 923.664 1794.86 982.266 1845.23 1032.59C1895.6 1082.91 1954.25 1122.42 2019.57 1150.03C2087.19 1178.6 2159 1193.09 2233.05 1193.09C2307.11 1193.09 2378.92 1178.6 2446.54 1150.03C2511.86 1122.42 2570.51 1082.91 2620.88 1032.59C2671.24 982.265 2710.78 923.664 2738.42 858.399C2767.01 790.833 2781.51 719.083 2781.51 645.092C2781.51 571.101 2767.01 499.351 2738.42 431.784C2710.78 366.519 2671.24 307.918 2620.88 257.594C2570.51 207.271 2511.86 167.765 2446.54 140.153C2378.92 111.585 2307.11 97.0912 2233.05 97.0912C2159 97.0912 2087.19 111.585 2019.57 140.153C1954.25 167.765 1895.6 207.271 1845.23 257.594C1794.86 307.918 1755.33 366.519 1727.69 431.785C1699.1 499.351 1684.59 571.101 1684.59 645.092ZM2778.61 645.092C2778.61 945.658 2533.87 1190.22 2233.02 1190.22C1932.17 1190.22 1687.43 945.688 1687.43 645.092C1687.43 344.495 1932.17 99.9599 2233.02 99.9599C2533.87 99.9599 2778.61 344.495 2778.61 645.092Z" fill="#8285FF"/>
<path d="M655.802 113.407C655.802 205.507 673.867 294.829 709.458 378.95C743.852 460.173 793.081 533.148 855.769 595.784C918.458 658.419 991.494 707.607 1072.79 741.973C1156.95 777.534 1246.37 795.584 1338.55 795.584C1430.73 795.584 1520.13 777.534 1604.32 741.973C1685.61 707.607 1758.65 658.419 1821.33 595.784C1884.02 533.148 1933.25 460.173 1967.65 378.95C2003.24 294.859 2021.3 205.507 2021.3 113.407C2021.3 21.3063 2003.24 -68.0149 1967.65 -152.136C1933.25 -233.359 1884.02 -306.335 1821.33 -368.97C1758.64 -431.606 1685.61 -480.793 1604.32 -515.159C1520.16 -550.72 1430.73 -568.77 1338.55 -568.77C1246.37 -568.77 1156.98 -550.72 1072.79 -515.159C991.494 -480.793 918.457 -431.605 855.769 -368.97C793.081 -306.335 743.852 -233.359 709.458 -152.136C673.867 -68.0447 655.802 21.3064 655.802 113.407ZM2018.43 113.407C2018.43 487.964 1713.45 792.715 1338.55 792.715C963.649 792.715 658.673 487.994 658.673 113.407C658.673 -261.181 963.649 -565.901 1338.55 -565.901C1713.45 -565.901 2018.43 -261.181 2018.43 113.407Z" fill="#8285FF"/>
<path d="M-1218.59 463.969C-1218.59 582.397 -1195.38 697.269 -1149.59 805.416C-1127.58 857.383 -1100.36 907.528 -1068.66 954.415C-1037.25 1000.85 -1001.18 1044.54 -961.466 1084.23C-921.748 1123.91 -878.021 1159.95 -831.544 1191.33C-784.617 1223.01 -734.431 1250.23 -682.42 1272.19C-574.182 1317.95 -459.214 1341.13 -340.687 1341.13C-222.16 1341.13 -107.192 1317.95 1.04688 1272.19C53.0576 1250.2 103.244 1223.01 150.17 1191.33C196.648 1159.95 240.374 1123.91 280.092 1084.23C319.811 1044.54 355.88 1000.85 387.284 954.414C418.987 907.528 446.234 857.383 468.216 805.416C514.006 697.268 537.215 582.397 537.215 463.969C537.215 345.542 514.006 230.67 468.216 122.522C446.204 70.5552 418.987 20.411 387.284 -26.4759C355.88 -72.9146 319.811 -116.604 280.092 -156.289C240.374 -195.974 196.648 -232.014 150.17 -263.391C103.244 -295.067 53.0576 -322.291 1.04681 -344.255C-107.192 -390.007 -222.16 -413.196 -340.687 -413.196C-459.214 -413.196 -574.182 -390.007 -682.42 -344.255C-734.431 -322.261 -784.618 -295.067 -831.544 -263.391C-878.022 -232.013 -921.748 -195.974 -961.466 -156.289C-1001.18 -116.604 -1037.25 -72.9145 -1068.66 -26.4758C-1100.36 20.4111 -1127.61 70.5553 -1149.59 122.522C-1195.38 230.67 -1218.59 345.542 -1218.59 463.969ZM534.344 463.969C534.344 946.047 141.796 1338.27 -340.687 1338.27C-823.169 1338.27 -1215.72 946.047 -1215.72 463.969C-1215.72 -18.1085 -823.17 -410.327 -340.687 -410.327C141.796 -410.327 534.344 -18.1086 534.344 463.969Z" fill="#8285FF"/>
<path d="M-1780.24 2712.9C-1780.24 2788.95 -1772.58 2864.95 -1757.45 2938.76C-1742.71 3010.72 -1720.72 3081.51 -1692.1 3149.14C-1663.99 3215.54 -1629.2 3279.61 -1588.68 3339.52C-1548.54 3398.87 -1502.48 3454.66 -1451.7 3505.38C-1400.94 3556.09 -1345.07 3602.14 -1285.7 3642.24C-1225.74 3682.73 -1161.64 3717.49 -1095.16 3745.58C-1027.48 3774.18 -956.622 3796.17 -884.603 3810.87C-810.699 3825.99 -734.642 3833.64 -658.555 3833.64C-582.468 3833.64 -506.381 3825.99 -432.507 3810.87C-360.488 3796.14 -289.634 3774.18 -221.952 3745.58C-155.495 3717.49 -91.3716 3682.73 -31.4052 3642.24C27.9929 3602.14 83.8319 3556.12 134.587 3505.38C185.341 3454.66 231.43 3398.84 271.567 3339.52C312.093 3279.61 346.877 3215.57 374.99 3149.14C403.613 3081.51 425.626 3010.72 440.341 2938.76C455.474 2864.92 463.131 2788.92 463.131 2712.9C463.131 2636.88 455.474 2560.85 440.341 2487.04C425.596 2415.08 403.613 2344.29 374.99 2276.66C346.876 2210.26 312.093 2146.19 271.567 2086.28C231.43 2026.93 185.371 1971.14 134.586 1920.42C83.8319 1869.71 27.9629 1823.66 -31.4053 1783.56C-91.3717 1743.07 -155.465 1708.31 -221.952 1680.22C-289.635 1651.62 -360.488 1629.63 -432.507 1614.93C-506.411 1599.81 -582.468 1592.16 -658.555 1592.16C-734.642 1592.16 -810.729 1599.81 -884.603 1614.93C-956.622 1629.66 -1027.48 1651.62 -1095.16 1680.22C-1161.61 1708.31 -1225.74 1743.07 -1285.7 1783.56C-1345.1 1823.66 -1400.94 1869.68 -1451.7 1920.42C-1502.45 1971.14 -1548.54 2026.96 -1588.68 2086.28C-1629.2 2146.19 -1663.99 2210.23 -1692.1 2276.66C-1720.72 2344.29 -1742.74 2415.08 -1757.45 2487.04C-1772.58 2560.88 -1780.24 2636.88 -1780.24 2712.9ZM460.259 2712.9C460.259 3329.3 -41.6337 3830.77 -658.555 3830.77C-1275.48 3830.77 -1777.37 3329.3 -1777.37 2712.9C-1777.37 2096.5 -1275.48 1595.02 -658.555 1595.02C-41.6338 1595.02 460.259 2096.5 460.259 2712.9Z" fill="#8285FF"/>
<path d="M1311.84 4364.49C1311.84 4462.54 1321.74 4560.55 1341.24 4655.76C1360.24 4748.55 1388.62 4839.84 1425.53 4927.07C1461.77 5012.72 1506.64 5095.32 1558.89 5172.57C1610.63 5249.1 1670.06 5321.06 1735.53 5386.47C1801 5451.89 1873.02 5511.26 1949.61 5562.96C2026.95 5615.17 2109.62 5659.99 2195.34 5696.21C2282.64 5733.12 2373.98 5761.45 2466.88 5780.42C2562.16 5799.91 2660.26 5809.8 2758.39 5809.8C2856.52 5809.8 2954.62 5799.91 3049.91 5780.42C3142.78 5761.45 3234.15 5733.09 3321.45 5696.21C3407.17 5659.99 3489.83 5615.17 3567.15 5562.96C3643.74 5511.26 3715.76 5451.89 3781.23 5386.47C3846.7 5321.06 3906.13 5249.1 3957.87 5172.57C4010.12 5095.29 4054.98 5012.69 4091.23 4927.07C4128.17 4839.84 4156.52 4748.58 4175.51 4655.76C4194.99 4560.55 4204.88 4462.54 4204.88 4364.49C4204.88 4266.44 4194.99 4168.43 4175.48 4073.22C4156.49 3980.43 4128.11 3889.14 4091.2 3801.91C4054.95 3716.26 4010.09 3633.66 3957.84 3556.41C3906.1 3479.88 3846.67 3407.92 3781.2 3342.51C3715.73 3277.1 3643.71 3217.72 3567.12 3166.02C3489.77 3113.81 3407.11 3068.99 3321.42 3032.77C3234.12 2995.86 3142.78 2967.53 3049.88 2948.56C2954.59 2929.07 2856.49 2919.18 2758.36 2919.18C2660.23 2919.18 2562.13 2929.07 2466.85 2948.56C2373.98 2967.53 2282.61 2995.89 2195.31 3032.77C2109.59 3068.99 2026.92 3113.81 1949.58 3166.02C1872.99 3217.72 1800.97 3277.1 1735.5 3342.51C1670.03 3407.92 1610.6 3479.88 1558.86 3556.41C1506.61 3633.69 1461.74 3716.29 1425.5 3801.91C1388.56 3889.14 1360.21 3980.4 1341.21 4073.22C1321.71 4168.43 1311.81 4266.44 1311.81 4364.49L1311.84 4364.49ZM4202.01 4364.49C4202.01 5159.84 3554.41 5806.93 2758.36 5806.93C1962.32 5806.93 1314.71 5159.87 1314.71 4364.49C1314.71 3569.12 1962.32 2922.05 2758.36 2922.05C3554.41 2922.05 4202.01 3569.12 4202.01 4364.49Z" fill="#8285FF"/>
</g>
<mask id="mask1_781_3995" style="mask-type:luminance" maskUnits="userSpaceOnUse" x="-740" y="0" width="3949" height="5379">
<path d="M3208.45 0L3208.46 5379L-739.457 5379L-739.457 0.000172584L3208.45 0Z" fill="white"/>
</mask>
<g mask="url(#mask1_781_3995)">
<path d="M1643.44 3424.42C1643.44 3414.49 1651.5 3406.43 1661.44 3406.43C1671.39 3406.43 1679.45 3414.49 1679.45 3424.42C1679.45 3434.36 1671.39 3442.41 1661.44 3442.41C1651.5 3442.41 1643.44 3434.36 1643.44 3424.42Z" fill="#8285FF"/>
<path d="M1670.54 697.626C1670.54 687.691 1678.6 679.637 1688.54 679.637C1698.48 679.637 1706.54 687.691 1706.54 697.626C1706.54 707.562 1698.48 715.616 1688.54 715.616C1678.6 715.616 1670.54 707.562 1670.54 697.626Z" fill="#8285FF"/>
<path d="M1795.72 977.88C1804.87 968.742 1819.69 968.742 1828.84 977.88C1837.98 987.018 1837.98 1001.83 1828.84 1010.97C1819.69 1020.11 1804.87 1020.11 1795.72 1010.97C1786.57 1001.83 1786.57 987.017 1795.72 977.88Z" fill="#8285FF"/>
<path d="M347.911 3153.16C357.057 3144.02 371.884 3144.02 381.03 3153.16C390.175 3162.3 390.175 3177.11 381.03 3186.25C371.885 3195.39 357.057 3195.39 347.911 3186.25C338.766 3177.11 338.766 3162.3 347.911 3153.16Z" fill="#8285FF"/>
<path d="M308.764 3245.88C321.351 3242.92 333.964 3250.7 336.935 3263.28C339.906 3275.86 332.11 3288.46 319.523 3291.43C306.935 3294.4 294.322 3286.61 291.351 3274.03C288.38 3261.45 296.176 3248.85 308.764 3245.88Z" fill="#8285FF"/>
<path d="M501.839 273.091C510.984 263.953 525.812 263.953 534.958 273.091C544.103 282.229 544.103 297.044 534.958 306.182C525.812 315.319 510.985 315.319 501.839 306.182C492.694 297.044 492.694 282.229 501.839 273.091Z" fill="#8285FF"/>
<path d="M650.728 247.804C655.677 235.865 669.376 230.195 681.325 235.141C693.274 240.086 698.948 253.774 693.999 265.713C689.049 277.652 675.351 283.321 663.402 278.376C651.452 273.431 645.778 259.743 650.728 247.804Z" fill="#8285FF"/>
<path d="M407.581 3445.9C416.727 3436.76 431.554 3436.76 440.7 3445.9C449.845 3455.04 449.845 3469.85 440.7 3478.99C431.554 3488.13 416.727 3488.13 407.581 3478.99C398.436 3469.85 398.436 3455.04 407.581 3445.9Z" fill="#8285FF"/>
<path d="M787.341 3404.64C787.341 3391.72 797.826 3381.24 810.76 3381.24C823.693 3381.24 834.178 3391.72 834.178 3404.64C834.178 3417.56 823.693 3428.04 810.76 3428.04C797.826 3428.04 787.341 3417.56 787.341 3404.64Z" fill="#8285FF"/>
<path d="M798.098 3245.43C810.685 3242.46 823.298 3250.25 826.269 3262.83C829.24 3275.4 821.444 3288.01 808.857 3290.97C796.269 3293.94 783.656 3286.15 780.685 3273.58C777.714 3261 785.51 3248.4 798.098 3245.43Z" fill="#8285FF"/>
<path d="M35.225 2969.37C50.7226 2965.72 66.251 2975.31 69.9088 2990.79C73.5665 3006.28 63.9684 3021.79 48.4709 3025.45C32.9734 3029.1 17.445 3019.51 13.7872 3004.03C10.1295 2988.54 19.7275 2973.03 35.225 2969.37Z" fill="#8285FF"/>
<path d="M454.01 764.237C454.01 748.327 466.919 735.429 482.842 735.429C498.765 735.429 511.674 748.327 511.674 764.237C511.674 780.147 498.765 793.044 482.842 793.044C466.919 793.044 454.01 780.147 454.01 764.237Z" fill="#8285FF"/>
<path d="M1910.64 2873.73C1910.64 2857.82 1923.55 2844.92 1939.47 2844.92C1955.4 2844.92 1968.3 2857.82 1968.3 2873.73C1968.3 2889.64 1955.4 2902.54 1939.47 2902.54C1923.55 2902.54 1910.64 2889.64 1910.64 2873.73Z" fill="#8285FF"/>
<path d="M1399.32 3186.7C1399.32 3176.76 1407.39 3168.71 1417.33 3168.71C1427.27 3168.71 1435.33 3176.76 1435.33 3186.7C1435.33 3196.63 1427.27 3204.69 1417.33 3204.69C1407.39 3204.69 1399.32 3196.63 1399.32 3186.7Z" fill="#8285FF"/>
<path d="M1181.98 2703.19C1181.98 2693.25 1190.04 2685.2 1199.99 2685.2C1209.93 2685.2 1217.99 2693.25 1217.99 2703.19C1217.99 2713.12 1209.93 2721.18 1199.99 2721.18C1190.04 2721.18 1181.98 2713.12 1181.98 2703.19Z" fill="#8285FF"/>
<path d="M1715.93 448.34C1705.98 448.34 1697.93 456.408 1697.93 466.329C1697.93 476.251 1706 484.319 1715.93 484.319C1725.86 484.319 1733.94 476.251 1733.94 466.329C1733.94 456.408 1725.86 448.34 1715.93 448.34Z" fill="#8285FF"/>
<path d="M1851.51 543.398C1841.55 543.398 1833.51 551.467 1833.51 561.388C1833.51 571.309 1841.58 579.378 1851.51 579.378C1861.44 579.378 1869.52 571.309 1869.52 561.388C1869.52 551.467 1861.44 543.398 1851.51 543.398Z" fill="#8285FF"/>
<path d="M1230.55 244.204C1246.05 240.549 1261.58 250.139 1265.23 265.623C1268.89 281.108 1259.29 296.623 1243.8 300.278C1228.3 303.933 1212.77 294.343 1209.11 278.858C1205.45 263.374 1215.05 247.859 1230.55 244.204Z" fill="#8285FF"/>
<path d="M989.412 1127.6C1000.67 1116.35 1018.93 1116.35 1030.19 1127.6C1041.45 1138.85 1041.45 1157.09 1030.19 1168.34C1018.93 1179.59 1000.67 1179.59 989.412 1168.34C978.152 1157.09 978.152 1138.85 989.412 1127.6Z" fill="#8285FF"/>
<path d="M1162.96 775.861C1162.96 765.926 1171.02 757.871 1180.96 757.871C1190.91 757.871 1198.97 765.926 1198.97 775.861C1198.97 785.797 1190.91 793.851 1180.96 793.851C1171.02 793.851 1162.96 785.797 1162.96 775.861Z" fill="#8285FF"/>
<path d="M-32.2419 1797.15C-32.2419 1787.22 -24.1812 1779.16 -14.2374 1779.16C-4.29354 1779.16 3.76758 1787.22 3.76758 1797.15C3.76758 1807.09 -4.29354 1815.14 -14.2374 1815.14C-24.1812 1815.14 -32.2419 1807.09 -32.2419 1797.15Z" fill="#8285FF"/>
</g>
<mask id="mask2_781_3995" style="mask-type:luminance" maskUnits="userSpaceOnUse" x="-740" y="0" width="3949" height="5379">
<path d="M3208.45 0L3208.46 5379L-739.457 5379L-739.457 0.000172584L3208.45 0Z" fill="white"/>
</mask>
<g mask="url(#mask2_781_3995)">
<path d="M-607.798 1754.87C-607.798 1858.03 -597.39 1961.12 -576.873 2061.29C-556.894 2158.92 -527.046 2254.94 -488.195 2346.71C-450.061 2436.81 -402.866 2523.71 -347.894 2604.99C-293.461 2685.5 -230.952 2761.22 -162.073 2830.01C-93.2239 2898.8 -17.4362 2961.29 63.1371 3015.68C144.488 3070.6 231.462 3117.76 321.636 3155.86C413.484 3194.68 509.58 3224.47 607.291 3244.46C707.544 3264.96 810.728 3275.36 913.972 3275.36C1017.22 3275.36 1120.4 3264.96 1220.65 3244.46C1318.36 3224.5 1414.46 3194.68 1506.31 3155.86C1596.48 3117.76 1683.46 3070.6 1764.81 3015.68C1845.38 2961.29 1921.17 2898.83 1990.02 2830.01C2058.87 2761.22 2121.4 2685.5 2175.84 2604.99C2230.81 2523.71 2278.01 2436.81 2316.14 2346.71C2354.99 2254.94 2384.81 2158.92 2404.82 2061.29C2425.33 1961.12 2435.74 1858.03 2435.74 1754.87C2435.74 1651.71 2425.33 1548.61 2404.82 1448.45C2384.84 1350.82 2354.99 1254.8 2316.14 1163.03C2278.01 1072.93 2230.81 986.03 2175.84 904.748C2121.4 824.242 2058.9 748.518 1990.02 679.726C1921.17 610.935 1845.38 548.449 1764.81 494.061C1683.46 439.135 1596.48 391.98 1506.31 353.879C1414.46 315.06 1318.36 285.266 1220.65 265.274C1120.4 244.774 1017.22 234.375 913.972 234.375C810.728 234.375 707.544 244.774 607.291 265.274C509.58 285.237 413.484 315.06 321.636 353.879C231.462 391.98 144.488 439.136 63.137 494.061C-17.4363 548.449 -93.224 610.905 -162.073 679.726C-230.922 748.518 -293.461 824.242 -347.894 904.748C-402.866 986.031 -450.061 1072.93 -488.195 1163.03C-527.046 1254.8 -556.864 1350.82 -576.873 1448.45C-597.39 1548.61 -607.798 1651.71 -607.798 1754.87ZM2429.13 1754.87C2429.13 2589.69 1749.4 3268.85 913.882 3268.85C78.3608 3268.85 -601.368 2589.69 -601.368 1754.87C-601.368 920.048 78.3606 240.89 913.882 240.89C1749.4 240.889 2429.13 920.048 2429.13 1754.87Z" fill="#8285FF"/>
<path d="M799.245 3300.91C799.245 3388.86 816.472 3474.21 850.478 3554.53C883.317 3632.11 930.334 3701.8 990.24 3761.62C1050.12 3821.45 1119.86 3868.43 1197.51 3901.27C1277.9 3935.25 1363.29 3952.46 1451.34 3952.46C1539.39 3952.46 1624.78 3935.25 1705.17 3901.27C1782.81 3868.46 1852.56 3821.48 1912.44 3761.62C1972.31 3701.8 2019.33 3632.11 2052.2 3554.53C2086.2 3474.21 2103.43 3388.89 2103.43 3300.91C2103.43 3212.94 2086.2 3127.62 2052.2 3047.29C2019.36 2969.72 1972.34 2900.03 1912.44 2840.2C1852.56 2780.38 1782.81 2733.4 1705.17 2700.56C1624.78 2666.58 1539.39 2649.37 1451.34 2649.37C1363.29 2649.37 1277.9 2666.58 1197.51 2700.56C1119.86 2733.37 1050.12 2780.35 990.24 2840.2C930.364 2900.03 883.347 2969.72 850.478 3047.29C816.472 3127.62 799.245 3212.94 799.245 3300.91ZM2097 3300.91C2097 3656.61 1807.37 3946 1451.37 3946C1095.37 3946 805.735 3656.61 805.735 3300.91C805.735 2945.21 1095.37 2655.82 1451.37 2655.82C1807.37 2655.82 2097 2945.21 2097 3300.91Z" fill="#8285FF"/>
<path d="M327.976 257.564C327.976 382.656 352.5 504.012 400.862 618.226C424.101 673.122 452.873 726.075 486.371 775.622C519.539 824.69 557.643 870.83 599.604 912.757C641.566 954.683 687.744 992.754 736.854 1025.89C786.442 1059.36 839.44 1088.11 894.381 1111.33C1008.72 1159.65 1130.15 1184.16 1255.35 1184.16C1380.54 1184.16 1502 1159.65 1616.31 1111.33C1671.25 1088.11 1724.25 1059.36 1773.84 1025.89C1822.95 992.754 1869.13 954.683 1911.09 912.756C1953.05 870.83 1991.15 824.69 2024.32 775.622C2057.82 726.075 2086.59 673.122 2109.83 618.226C2158.19 503.982 2182.72 382.656 2182.72 257.564C2182.72 132.473 2158.19 11.1164 2109.83 -103.098C2086.59 -157.993 2057.82 -210.947 2024.32 -260.493C1991.15 -309.562 1953.05 -355.701 1911.09 -397.628C1869.13 -439.554 1822.95 -477.626 1773.84 -510.766C1724.25 -544.236 1671.25 -572.983 1616.31 -596.202C1501.97 -644.524 1380.54 -669.028 1255.35 -669.028C1130.15 -669.028 1008.72 -644.524 894.381 -596.202C839.44 -572.983 786.442 -544.236 736.854 -510.766C687.744 -477.626 641.566 -439.554 599.604 -397.628C557.643 -355.701 519.539 -309.562 486.37 -260.493C452.873 -210.947 424.101 -157.993 400.862 -103.098C352.5 11.1463 327.976 132.473 327.976 257.564ZM2176.23 257.564C2176.23 764.924 1763.1 1177.7 1255.32 1177.7C747.531 1177.7 334.406 764.924 334.406 257.564C334.406 -249.795 747.531 -662.574 1255.32 -662.574C1763.1 -662.574 2176.23 -249.795 2176.23 257.564Z" fill="#8285FF"/>
<path d="M-1724.37 3914.75C-1724.37 3990.92 -1716.68 4067.03 -1701.55 4140.96C-1686.77 4213.04 -1664.76 4283.93 -1636.08 4351.67C-1607.94 4418.19 -1573.06 4482.35 -1532.51 4542.36C-1492.31 4601.79 -1446.16 4657.68 -1395.32 4708.48C-1344.47 4759.28 -1288.54 4805.39 -1229.06 4845.55C-1169 4886.1 -1104.79 4920.92 -1038.21 4949.04C-970.408 4977.7 -899.465 4999.69 -827.326 5014.45C-753.302 5029.57 -677.125 5037.25 -600.919 5037.25C-524.712 5037.25 -448.506 5029.57 -374.512 5014.45C-302.373 4999.69 -231.43 4977.7 -163.628 4949.04C-97.0517 4920.92 -32.8381 4886.08 27.218 4845.55C86.7058 4805.39 142.634 4759.28 193.479 4708.48C244.323 4657.68 290.472 4601.79 330.669 4542.36C371.254 4482.35 406.098 4418.19 434.242 4351.67C462.924 4283.93 484.936 4213.04 499.711 4140.96C514.845 4067 522.531 3990.89 522.531 3914.75C522.531 3838.6 514.845 3762.46 499.711 3688.53C484.936 3616.45 462.924 3545.57 434.241 3477.82C406.098 3411.3 371.224 3347.14 330.669 3287.14C290.472 3227.7 244.323 3171.82 193.479 3121.02C142.634 3070.21 86.7057 3024.1 27.2179 2983.94C-32.8382 2943.39 -97.0518 2908.58 -163.628 2880.46C-231.43 2851.8 -302.373 2829.8 -374.512 2815.04C-448.536 2799.92 -524.712 2792.24 -600.919 2792.24C-677.125 2792.24 -753.332 2799.92 -827.326 2815.04C-899.465 2829.8 -970.408 2851.8 -1038.21 2880.46C-1104.79 2908.58 -1169 2943.42 -1229.06 2983.94C-1288.54 3024.1 -1344.5 3070.21 -1395.32 3121.02C-1446.16 3171.82 -1492.31 3227.7 -1532.51 3287.14C-1573.09 3347.14 -1607.94 3411.3 -1636.08 3477.82C-1664.76 3545.57 -1686.77 3616.45 -1701.55 3688.53C-1716.68 3762.49 -1724.37 3838.6 -1724.37 3914.75ZM516.131 3914.75C516.131 4530.16 15.0452 5030.83 -600.889 5030.83C-1216.82 5030.83 -1717.91 4530.16 -1717.91 3914.75C-1717.91 3299.33 -1216.82 2798.66 -600.889 2798.66C15.0451 2798.66 516.131 3299.33 516.131 3914.75Z" fill="#8285FF"/>
<path d="M-1653.31 365.772C-1653.31 463.939 -1643.41 562.076 -1623.88 657.403C-1604.86 750.311 -1576.44 841.724 -1539.48 929.043C-1503.17 1014.78 -1458.25 1097.5 -1405.94 1174.86C-1354.13 1251.48 -1294.62 1323.53 -1229.09 1389.04C-1163.56 1454.51 -1091.42 1513.98 -1014.73 1565.74C-937.3 1618 -854.543 1662.89 -768.706 1699.17C-681.314 1736.1 -589.824 1764.46 -496.839 1783.5C-401.431 1803.01 -303.212 1812.9 -204.962 1812.9C-106.713 1812.9 -8.49401 1803.01 86.9139 1783.5C179.899 1764.49 271.389 1736.1 358.781 1699.17C444.589 1662.89 527.375 1618 604.808 1565.74C681.493 1513.98 753.602 1454.51 819.162 1389.04C884.691 1323.56 944.209 1251.48 996.01 1174.86C1048.32 1097.5 1093.24 1014.81 1129.55 929.043C1166.52 841.724 1194.9 750.311 1213.95 657.403C1233.48 562.075 1243.38 463.939 1243.38 365.772C1243.38 267.605 1233.48 169.468 1213.95 74.1406C1194.93 -18.7667 1166.52 -110.18 1129.55 -197.499C1093.24 -283.234 1048.32 -365.951 996.01 -443.319C944.209 -519.94 884.691 -591.989 819.162 -657.493C753.632 -722.967 681.493 -782.436 604.808 -834.193C527.375 -886.459 444.619 -931.344 358.781 -967.622C271.389 -1004.56 179.899 -1032.92 86.9137 -1051.95C-8.49414 -1071.47 -106.713 -1081.36 -204.962 -1081.36C-303.212 -1081.36 -401.431 -1071.47 -496.839 -1051.95C-589.824 -1032.95 -681.314 -1004.56 -768.706 -967.622C-854.514 -931.344 -937.3 -886.459 -1014.73 -834.193C-1091.42 -782.435 -1163.53 -722.967 -1229.09 -657.493C-1294.62 -592.018 -1354.13 -519.94 -1405.94 -443.319C-1458.25 -365.951 -1503.17 -283.264 -1539.48 -197.499C-1576.44 -110.18 -1604.83 -18.7666 -1623.88 74.1407C-1643.41 169.469 -1653.31 267.605 -1653.31 365.772ZM1236.86 365.772C1236.86 1160.13 590.063 1806.42 -204.992 1806.42C-1000.05 1806.42 -1646.85 1160.16 -1646.85 365.772C-1646.85 -428.617 -1000.05 -1074.87 -204.992 -1074.87C590.063 -1074.87 1236.86 -428.617 1236.86 365.772Z" fill="#8285FF"/>
</g>
</svg>
