<svg width="96" height="96" viewBox="0 0 96 96" fill="none" xmlns="http://www.w3.org/2000/svg">
<path d="M2 18C2 16.9391 2.42143 15.9217 3.17157 15.1716C3.92172 14.4214 4.93913 14 6 14H90C91.0609 14 92.0783 14.4214 92.8284 15.1716C93.5786 15.9217 94 16.9391 94 18C94 19.0609 93.5786 20.0783 92.8284 20.8284C92.0783 21.5786 91.0609 22 90 22H6C4.93913 22 3.92172 21.5786 3.17157 20.8284C2.42143 20.0783 2 19.0609 2 18ZM6 52H90C91.0609 52 92.0783 51.5786 92.8284 50.8284C93.5786 50.0783 94 49.0609 94 48C94 46.9391 93.5786 45.9217 92.8284 45.1716C92.0783 44.4214 91.0609 44 90 44H6C4.93913 44 3.92172 44.4214 3.17157 45.1716C2.42143 45.9217 2 46.9391 2 48C2 49.0609 2.42143 50.0783 3.17157 50.8284C3.92172 51.5786 4.93913 52 6 52ZM6 82H90C91.0609 82 92.0783 81.5786 92.8284 80.8284C93.5786 80.0783 94 79.0609 94 78C94 76.9391 93.5786 75.9217 92.8284 75.1716C92.0783 74.4214 91.0609 74 90 74H6C4.93913 74 3.92172 74.4214 3.17157 75.1716C2.42143 75.9217 2 76.9391 2 78C2 79.0609 2.42143 80.0783 3.17157 80.8284C3.92172 81.5786 4.93913 82 6 82Z" fill="black"/>
</svg>
